<svg xmlns="http://www.w3.org/2000/svg" xmlns:xlink="http://www.w3.org/1999/xlink" width="500" zoomAndPan="magnify" viewBox="0 0 375 374.999991" height="500" preserveAspectRatio="xMidYMid meet" version="1.0"><defs><g/><clipPath id="5573d91bc8"><path d="M 37.5 134.035156 L 116.351562 134.035156 L 116.351562 212.886719 L 37.5 212.886719 Z M 37.5 134.035156 " clip-rule="nonzero"/></clipPath><clipPath id="8eba017cf0"><path d="M 76.925781 134.035156 C 55.152344 134.035156 37.5 151.6875 37.5 173.460938 C 37.5 195.234375 55.152344 212.886719 76.925781 212.886719 C 98.699219 212.886719 116.351562 195.234375 116.351562 173.460938 C 116.351562 151.6875 98.699219 134.035156 76.925781 134.035156 Z M 76.925781 134.035156 " clip-rule="nonzero"/></clipPath><clipPath id="6fa275faa5"><path d="M 111.214844 134.035156 L 190.066406 134.035156 L 190.066406 212.886719 L 111.214844 212.886719 Z M 111.214844 134.035156 " clip-rule="nonzero"/></clipPath><clipPath id="d9826ad1c9"><path d="M 150.640625 134.035156 C 128.867188 134.035156 111.214844 151.6875 111.214844 173.460938 C 111.214844 195.234375 128.867188 212.886719 150.640625 212.886719 C 172.417969 212.886719 190.066406 195.234375 190.066406 173.460938 C 190.066406 151.6875 172.417969 134.035156 150.640625 134.035156 Z M 150.640625 134.035156 " clip-rule="nonzero"/></clipPath><clipPath id="85551bae29"><path d="M 184.933594 134.035156 L 263.785156 134.035156 L 263.785156 212.886719 L 184.933594 212.886719 Z M 184.933594 134.035156 " clip-rule="nonzero"/></clipPath><clipPath id="e0b1b50216"><path d="M 224.359375 134.035156 C 202.582031 134.035156 184.933594 151.6875 184.933594 173.460938 C 184.933594 195.234375 202.582031 212.886719 224.359375 212.886719 C 246.132812 212.886719 263.785156 195.234375 263.785156 173.460938 C 263.785156 151.6875 246.132812 134.035156 224.359375 134.035156 Z M 224.359375 134.035156 " clip-rule="nonzero"/></clipPath><clipPath id="e66e27ea67"><path d="M 258.648438 134.035156 L 337.5 134.035156 L 337.5 212.886719 L 258.648438 212.886719 Z M 258.648438 134.035156 " clip-rule="nonzero"/></clipPath><clipPath id="d1794255ad"><path d="M 298.074219 134.035156 C 276.300781 134.035156 258.648438 151.6875 258.648438 173.460938 C 258.648438 195.234375 276.300781 212.886719 298.074219 212.886719 C 319.847656 212.886719 337.5 195.234375 337.5 173.460938 C 337.5 151.6875 319.847656 134.035156 298.074219 134.035156 Z M 298.074219 134.035156 " clip-rule="nonzero"/></clipPath></defs><rect x="-37.5" width="450" fill="#ffffff" y="-37.499999" height="449.999989" fill-opacity="1"/><rect x="-37.5" width="450" fill="#ffffff" y="-37.499999" height="449.999989" fill-opacity="1"/><g clip-path="url(#5573d91bc8)"><g clip-path="url(#8eba017cf0)"><path fill="#ff6f3c" d="M 37.5 134.035156 L 116.351562 134.035156 L 116.351562 212.886719 L 37.5 212.886719 Z M 37.5 134.035156 " fill-opacity="1" fill-rule="nonzero"/></g></g><g clip-path="url(#6fa275faa5)"><g clip-path="url(#d9826ad1c9)"><path fill="#1e3a5f" d="M 111.214844 134.035156 L 190.066406 134.035156 L 190.066406 212.886719 L 111.214844 212.886719 Z M 111.214844 134.035156 " fill-opacity="1" fill-rule="nonzero"/></g></g><g clip-path="url(#85551bae29)"><g clip-path="url(#e0b1b50216)"><path fill="#ff6f3c" d="M 184.933594 134.035156 L 263.785156 134.035156 L 263.785156 212.886719 L 184.933594 212.886719 Z M 184.933594 134.035156 " fill-opacity="1" fill-rule="nonzero"/></g></g><g clip-path="url(#e66e27ea67)"><g clip-path="url(#d1794255ad)"><path fill="#1e3a5f" d="M 258.648438 134.035156 L 337.5 134.035156 L 337.5 212.886719 L 258.648438 212.886719 Z M 258.648438 134.035156 " fill-opacity="1" fill-rule="nonzero"/></g></g><g fill="#b0b0b0" fill-opacity="1"><g transform="translate(143.674783, 241.642923)"><g><path d="M 3.203125 0 C 2.835938 0 2.519531 -0.128906 2.25 -0.390625 C 1.976562 -0.660156 1.84375 -0.976562 1.84375 -1.34375 L 1.84375 -14.65625 C 1.84375 -15.03125 1.976562 -15.347656 2.25 -15.609375 C 2.519531 -15.867188 2.835938 -16 3.203125 -16 L 7.625 -16 C 8.738281 -16 9.75 -15.726562 10.65625 -15.1875 C 11.570312 -14.644531 12.296875 -13.921875 12.828125 -13.015625 C 13.359375 -12.117188 13.625 -11.125 13.625 -10.03125 C 13.625 -8.945312 13.351562 -7.96875 12.8125 -7.09375 C 12.269531 -6.21875 11.546875 -5.523438 10.640625 -5.015625 C 9.742188 -4.503906 8.738281 -4.25 7.625 -4.25 L 4.578125 -4.25 L 4.578125 -1.34375 C 4.578125 -0.976562 4.441406 -0.660156 4.171875 -0.390625 C 3.910156 -0.128906 3.585938 0 3.203125 0 Z M 4.578125 -13.5 L 4.578125 -6.78125 L 7.671875 -6.78125 C 8.660156 -6.78125 9.445312 -7.101562 10.03125 -7.75 C 10.613281 -8.394531 10.90625 -9.175781 10.90625 -10.09375 C 10.90625 -10.71875 10.769531 -11.285156 10.5 -11.796875 C 10.226562 -12.316406 9.851562 -12.726562 9.375 -13.03125 C 8.894531 -13.34375 8.328125 -13.5 7.671875 -13.5 Z M 4.578125 -13.5 "/></g></g></g><g fill="#b0b0b0" fill-opacity="1"><g transform="translate(163.322522, 241.642923)"><g><path d="M 10.875 -5.671875 L 13.375 -2.21875 C 13.675781 -1.820312 13.816406 -1.445312 13.796875 -1.09375 C 13.785156 -0.75 13.632812 -0.476562 13.34375 -0.28125 C 13.050781 -0.0625 12.707031 0.0507812 12.3125 0.0625 C 11.914062 0.0703125 11.585938 -0.101562 11.328125 -0.46875 L 8.15625 -4.90625 C 8 -4.882812 7.84375 -4.867188 7.6875 -4.859375 C 7.53125 -4.847656 7.375 -4.84375 7.21875 -4.84375 L 4.578125 -4.84375 L 4.578125 -1.34375 C 4.578125 -0.976562 4.441406 -0.660156 4.171875 -0.390625 C 3.910156 -0.128906 3.585938 0 3.203125 0 C 2.835938 0 2.519531 -0.128906 2.25 -0.390625 C 1.976562 -0.660156 1.84375 -0.976562 1.84375 -1.34375 L 1.84375 -14.65625 C 1.84375 -15.03125 1.976562 -15.347656 2.25 -15.609375 C 2.519531 -15.867188 2.835938 -16 3.203125 -16 L 7.625 -16 C 8.738281 -16 9.742188 -15.75 10.640625 -15.25 C 11.546875 -14.75 12.269531 -14.066406 12.8125 -13.203125 C 13.351562 -12.347656 13.625 -11.394531 13.625 -10.34375 C 13.625 -9.21875 13.367188 -8.265625 12.859375 -7.484375 C 12.347656 -6.710938 11.6875 -6.109375 10.875 -5.671875 Z M 4.578125 -13.5 L 4.578125 -7.34375 L 7.65625 -7.34375 C 8.613281 -7.34375 9.394531 -7.625 10 -8.1875 C 10.601562 -8.757812 10.90625 -9.476562 10.90625 -10.34375 C 10.90625 -11.21875 10.609375 -11.960938 10.015625 -12.578125 C 9.421875 -13.191406 8.640625 -13.5 7.671875 -13.5 Z M 4.578125 -13.5 "/></g></g></g><g fill="#b0b0b0" fill-opacity="1"><g transform="translate(183.44518, 241.642923)"><g><path d="M 3.203125 0 C 2.835938 0 2.519531 -0.128906 2.25 -0.390625 C 1.976562 -0.660156 1.84375 -0.976562 1.84375 -1.34375 L 1.84375 -14.671875 C 1.84375 -15.054688 1.976562 -15.375 2.25 -15.625 C 2.519531 -15.875 2.835938 -16 3.203125 -16 C 3.585938 -16 3.910156 -15.875 4.171875 -15.625 C 4.441406 -15.375 4.578125 -15.054688 4.578125 -14.671875 L 4.578125 -1.34375 C 4.578125 -0.976562 4.441406 -0.660156 4.171875 -0.390625 C 3.910156 -0.128906 3.585938 0 3.203125 0 Z M 3.203125 0 "/></g></g></g><g fill="#b0b0b0" fill-opacity="1"><g transform="translate(195.244158, 241.642923)"><g><path d="M 14.296875 -16 C 14.679688 -16 15.003906 -15.875 15.265625 -15.625 C 15.523438 -15.375 15.65625 -15.054688 15.65625 -14.671875 L 15.65625 -1.34375 C 15.65625 -1.0625 15.570312 -0.804688 15.40625 -0.578125 C 15.238281 -0.359375 15.035156 -0.195312 14.796875 -0.09375 C 14.578125 0.0195312 14.332031 0.046875 14.0625 -0.015625 C 13.789062 -0.0859375 13.546875 -0.257812 13.328125 -0.53125 L 4.578125 -11.25 L 4.578125 -1.34375 C 4.578125 -0.976562 4.441406 -0.660156 4.171875 -0.390625 C 3.910156 -0.128906 3.585938 0 3.203125 0 C 2.835938 0 2.519531 -0.128906 2.25 -0.390625 C 1.976562 -0.660156 1.84375 -0.976562 1.84375 -1.34375 L 1.84375 -14.625 C 1.84375 -14.9375 1.921875 -15.203125 2.078125 -15.421875 C 2.242188 -15.640625 2.441406 -15.800781 2.671875 -15.90625 C 2.921875 -16 3.195312 -16.015625 3.5 -15.953125 C 3.800781 -15.898438 4.0625 -15.75 4.28125 -15.5 L 12.921875 -4.875 L 12.921875 -14.671875 C 12.921875 -15.054688 13.054688 -15.375 13.328125 -15.625 C 13.609375 -15.875 13.929688 -16 14.296875 -16 Z M 14.296875 -16 "/></g></g></g><g fill="#b0b0b0" fill-opacity="1"><g transform="translate(218.141381, 241.642923)"><g><path d="M 1.46875 -16 L 11.671875 -16 C 12.054688 -16 12.378906 -15.867188 12.640625 -15.609375 C 12.910156 -15.347656 13.046875 -15.035156 13.046875 -14.671875 C 13.046875 -14.367188 12.910156 -14.09375 12.640625 -13.84375 C 12.378906 -13.59375 12.054688 -13.46875 11.671875 -13.46875 L 7.953125 -13.46875 L 7.953125 -1.34375 C 7.953125 -0.976562 7.816406 -0.660156 7.546875 -0.390625 C 7.285156 -0.128906 6.960938 0 6.578125 0 C 6.210938 0 5.894531 -0.128906 5.625 -0.390625 C 5.351562 -0.660156 5.21875 -0.976562 5.21875 -1.34375 L 5.21875 -13.46875 L 1.46875 -13.46875 C 1.101562 -13.46875 0.785156 -13.597656 0.515625 -13.859375 C 0.253906 -14.117188 0.125 -14.382812 0.125 -14.65625 C 0.125 -15.03125 0.253906 -15.347656 0.515625 -15.609375 C 0.785156 -15.867188 1.101562 -16 1.46875 -16 Z M 1.46875 -16 "/></g></g></g><g fill="#ffffff" fill-opacity="1"><g transform="translate(61.457308, 188.83547)"><g><path d="M 15.453125 0.4375 C 14.046875 0.4375 12.957031 0.0507812 12.1875 -0.71875 C 11.425781 -1.488281 11.046875 -2.59375 11.046875 -4.03125 L 11.046875 -26.640625 L 3.5 -26.640625 C 1.070312 -26.640625 -0.140625 -27.835938 -0.140625 -30.234375 C -0.140625 -32.640625 1.070312 -33.84375 3.5 -33.84375 L 27.40625 -33.84375 C 29.84375 -33.84375 31.0625 -32.640625 31.0625 -30.234375 C 31.0625 -27.835938 29.84375 -26.640625 27.40625 -26.640625 L 19.875 -26.640625 L 19.875 -4.03125 C 19.875 -2.59375 19.492188 -1.488281 18.734375 -0.71875 C 17.984375 0.0507812 16.890625 0.4375 15.453125 0.4375 Z M 15.453125 0.4375 "/></g></g></g><g fill="#ffffff" fill-opacity="1"><g transform="translate(143.142153, 188.83547)"><g><path d="M 7.484375 0.4375 C 6.078125 0.4375 4.988281 0.0507812 4.21875 -0.71875 C 3.457031 -1.488281 3.078125 -2.609375 3.078125 -4.078125 L 3.078125 -29.765625 C 3.078125 -31.234375 3.457031 -32.347656 4.21875 -33.109375 C 4.988281 -33.878906 6.078125 -34.265625 7.484375 -34.265625 C 8.890625 -34.265625 9.976562 -33.878906 10.75 -33.109375 C 11.519531 -32.347656 11.90625 -31.234375 11.90625 -29.765625 L 11.90625 -4.078125 C 11.90625 -2.609375 11.523438 -1.488281 10.765625 -0.71875 C 10.015625 0.0507812 8.921875 0.4375 7.484375 0.4375 Z M 7.484375 0.4375 "/></g></g></g><g fill="#ffffff" fill-opacity="1"><g transform="translate(205.479365, 188.83547)"><g><path d="M 7.6875 0 C 4.613281 0 3.078125 -1.519531 3.078125 -4.5625 L 3.078125 -29.28125 C 3.078125 -32.320312 4.613281 -33.84375 7.6875 -33.84375 L 17.09375 -33.84375 C 22.945312 -33.84375 27.488281 -32.367188 30.71875 -29.421875 C 33.945312 -26.484375 35.5625 -22.320312 35.5625 -16.9375 C 35.5625 -11.5625 33.945312 -7.394531 30.71875 -4.4375 C 27.488281 -1.476562 22.945312 0 17.09375 0 Z M 11.90625 -7.15625 L 16.515625 -7.15625 C 19.867188 -7.15625 22.351562 -7.960938 23.96875 -9.578125 C 25.59375 -11.191406 26.40625 -13.644531 26.40625 -16.9375 C 26.40625 -20.238281 25.585938 -22.6875 23.953125 -24.28125 C 22.316406 -25.882812 19.835938 -26.6875 16.515625 -26.6875 L 11.90625 -26.6875 Z M 11.90625 -7.15625 "/></g></g></g><g fill="#ffffff" fill-opacity="1"><g transform="translate(290.574391, 188.83547)"><g><path d="M 7.484375 0.4375 C 6.078125 0.4375 4.988281 0.0507812 4.21875 -0.71875 C 3.457031 -1.488281 3.078125 -2.609375 3.078125 -4.078125 L 3.078125 -29.765625 C 3.078125 -31.234375 3.457031 -32.347656 4.21875 -33.109375 C 4.988281 -33.878906 6.078125 -34.265625 7.484375 -34.265625 C 8.890625 -34.265625 9.976562 -33.878906 10.75 -33.109375 C 11.519531 -32.347656 11.90625 -31.234375 11.90625 -29.765625 L 11.90625 -4.078125 C 11.90625 -2.609375 11.523438 -1.488281 10.765625 -0.71875 C 10.015625 0.0507812 8.921875 0.4375 7.484375 0.4375 Z M 7.484375 0.4375 "/></g></g></g></svg>